<svg width="24" height="24" viewBox="0 0 24 24" fill="none" xmlns="http://www.w3.org/2000/svg">
<path fill-rule="evenodd" clip-rule="evenodd" d="M4.25945 8.4061C3.93519 8.70135 3.91168 9.20356 4.20693 9.52782C4.50218 9.85208 5.00439 9.87559 5.32865 9.58034L7.20615 7.8708V18.206C7.20615 18.6445 7.56165 19 8.00019 19C8.43873 19 8.79423 18.6445 8.79423 18.206V7.8708L10.6717 9.58034C10.996 9.87559 11.4982 9.85208 11.7934 9.52782C12.0887 9.20356 12.0652 8.70135 11.7409 8.4061L8.00019 5L4.25945 8.4061ZM19.7406 15.5939C20.0648 15.2986 20.0883 14.7964 19.7931 14.4722C19.4978 14.1479 18.9956 14.1244 18.6714 14.4197L16.7939 16.1292V5.79404C16.7939 5.35551 16.4384 5 15.9998 5C15.5613 5 15.2058 5.35551 15.2058 5.79404V16.1292L13.3283 14.4197C13.004 14.1244 12.5018 14.1479 12.2066 14.4722C11.9113 14.7964 11.9348 15.2986 12.2591 15.5939L15.9998 19L19.7406 15.5939Z" fill="white"/>
</svg>
