<svg width="24" height="24" viewBox="0 0 24 24" fill="none" xmlns="http://www.w3.org/2000/svg">
<path d="M20.4 19.5C20.4 19.7387 20.3052 19.9676 20.1364 20.1364C19.9676 20.3052 19.7387 20.4 19.5 20.4H5.70001C5.14305 20.4 4.60891 20.1788 4.21508 19.7849C3.82126 19.3911 3.60001 18.857 3.60001 18.3V4.5C3.60001 4.26131 3.69483 4.03239 3.86361 3.8636C4.03239 3.69482 4.26131 3.6 4.50001 3.6C4.7387 3.6 4.96762 3.69482 5.1364 3.8636C5.30519 4.03239 5.40001 4.26131 5.40001 4.5V18.3C5.40001 18.4656 5.53441 18.6 5.70001 18.6H19.5C19.7387 18.6 19.9676 18.6948 20.1364 18.8636C20.3052 19.0324 20.4 19.2613 20.4 19.5Z" fill="white"/>
<path d="M14.4 6.9C14.4 6.66131 14.4948 6.43239 14.6636 6.2636C14.8324 6.09482 15.0613 6 15.3 6H19.5C19.7387 6 19.9676 6.09482 20.1364 6.2636C20.3052 6.43239 20.4 6.66131 20.4 6.9V11.1C20.4 11.3387 20.3052 11.5676 20.1364 11.7364C19.9676 11.9052 19.7387 12 19.5 12C19.2613 12 19.0324 11.9052 18.8636 11.7364C18.6948 11.5676 18.6 11.3387 18.6 11.1V9.072L13.836 13.836C13.6673 14.0045 13.4385 14.0992 13.2 14.0992C12.9615 14.0992 12.7328 14.0045 12.564 13.836L10.8 12.072L8.13602 14.736C7.96541 14.895 7.73975 14.9815 7.50659 14.9774C7.27343 14.9733 7.05097 14.8788 6.88607 14.7139C6.72118 14.549 6.62672 14.3266 6.62261 14.0934C6.61849 13.8603 6.70504 13.6346 6.86402 13.464L10.164 10.164C10.3328 9.99546 10.5615 9.90079 10.8 9.90079C11.0385 9.90079 11.2673 9.99546 11.436 10.164L13.2 11.928L17.328 7.8H15.3C15.0613 7.8 14.8324 7.70518 14.6636 7.5364C14.4948 7.36761 14.4 7.13869 14.4 6.9Z" fill="white"/>
</svg>
