<svg width="24" height="24" viewBox="0 0 24 24" fill="none" xmlns="http://www.w3.org/2000/svg">
<path d="M20.7141 6.28361C20.6227 6.19374 20.514 6.12241 20.3942 6.07374C20.2744 6.02506 20.1459 6 20.0161 6C19.8863 6 19.7578 6.02506 19.638 6.07374C19.5182 6.12241 19.4095 6.19374 19.3181 6.28361L9.67348 15.7372L5.67211 11.787C5.48791 11.6085 5.23873 11.5082 4.979 11.5082C4.71927 11.5082 4.47009 11.6085 4.28589 11.787C4.10278 11.9667 4 12.2097 4 12.463C4 12.7163 4.10278 12.9593 4.28589 13.1389L8.98528 17.7219C9.1684 17.8991 9.41556 17.9989 9.67348 18C9.80287 18.0007 9.93113 17.9765 10.0509 17.9288C10.1707 17.8811 10.2796 17.8108 10.3715 17.7219L20.7141 7.6355C20.8972 7.45586 21 7.21285 21 6.95955C21 6.70625 20.8972 6.46325 20.7141 6.28361Z" fill="white"/>
</svg>
