<svg width="24" height="24" viewBox="0 0 24 24" fill="none" xmlns="http://www.w3.org/2000/svg">
<path d="M20.352 5.18464C20.2598 5.09172 20.1502 5.01797 20.0294 4.96764C19.9085 4.91731 19.779 4.8914 19.6481 4.8914C19.5172 4.8914 19.3877 4.91731 19.2669 4.96764C19.1461 5.01797 19.0364 5.09172 18.9443 5.18464L11.3904 12.7485L9.60598 10.9641C9.42024 10.7794 9.16899 10.6758 8.90709 10.6758C8.6452 10.6758 8.39395 10.7794 8.20821 10.9641C8.11529 11.0562 8.04155 11.1659 7.99122 11.2867C7.94089 11.4075 7.91498 11.537 7.91498 11.6679C7.91498 11.7988 7.94089 11.9283 7.99122 12.0491C8.04155 12.17 8.11529 12.2796 8.20821 12.3717L10.6865 14.8501C10.8723 15.0347 11.1235 15.1383 11.3854 15.1383C11.6473 15.1383 11.8986 15.0347 12.0843 14.8501L20.352 6.58241C20.5366 6.39667 20.6402 6.14541 20.6402 5.88352C20.6402 5.62163 20.5366 5.37037 20.352 5.18464Z" fill="white"/>
<path d="M18.8352 11.4994C18.5723 11.4994 18.3201 11.6038 18.1342 11.7897C17.9483 11.9756 17.8439 12.2278 17.8439 12.4907V18.2801C17.8439 18.3668 17.8267 18.4527 17.7932 18.5327C17.7597 18.6128 17.7106 18.6853 17.6488 18.7462C17.587 18.8071 17.5137 18.8551 17.4331 18.8874C17.3526 18.9197 17.2665 18.9356 17.1797 18.9343H5.60101C5.42921 18.9317 5.26533 18.8616 5.14477 18.7392C5.0242 18.6168 4.95663 18.4519 4.95665 18.2801V6.71128C4.95665 6.53512 5.02663 6.36619 5.15119 6.24163C5.27575 6.11707 5.44469 6.04709 5.62084 6.04709H14.7113C14.9742 6.04709 15.2264 5.94265 15.4123 5.75674C15.5982 5.57083 15.7026 5.31868 15.7026 5.05576C15.7026 4.79285 15.5982 4.5407 15.4123 4.35479C15.2264 4.16888 14.9742 4.06444 14.7113 4.06444H5.60101C4.90328 4.07224 4.23662 4.35424 3.74508 4.84949C3.25353 5.34475 2.97656 6.0135 2.974 6.71128V18.2801C2.97659 18.9769 3.25388 19.6446 3.7457 20.1383C4.23752 20.632 4.90418 20.9118 5.60101 20.917H17.1698C17.5174 20.9183 17.8618 20.8511 18.1834 20.7193C18.5051 20.5875 18.7976 20.3936 19.0443 20.1488C19.291 19.9039 19.4871 19.6128 19.6213 19.2922C19.7555 18.9716 19.8252 18.6276 19.8265 18.2801V12.4907C19.8265 12.2278 19.7221 11.9756 19.5362 11.7897C19.3503 11.6038 19.0981 11.4994 18.8352 11.4994Z" fill="white"/>
</svg>
