<svg width="24" height="24" viewBox="0 0 24 24" fill="none" xmlns="http://www.w3.org/2000/svg">
<path d="M10.5111 5.17067C10.8898 3.60978 13.1102 3.60978 13.4889 5.17067C13.5457 5.40515 13.6571 5.62291 13.814 5.80622C13.9708 5.98953 14.1688 6.1332 14.3917 6.22555C14.6146 6.3179 14.8561 6.35631 15.0967 6.33766C15.3372 6.31901 15.57 6.24382 15.776 6.11822C17.1476 5.28267 18.7182 6.85244 17.8827 8.22489C17.7572 8.4308 17.6822 8.66341 17.6636 8.9038C17.645 9.14419 17.6833 9.38557 17.7756 9.60834C17.8678 9.8311 18.0113 10.029 18.1944 10.1858C18.3775 10.3427 18.5951 10.4541 18.8293 10.5111C20.3902 10.8898 20.3902 13.1102 18.8293 13.4889C18.5948 13.5457 18.3771 13.6571 18.1938 13.814C18.0105 13.9708 17.8668 14.1688 17.7744 14.3917C17.6821 14.6146 17.6437 14.8561 17.6623 15.0967C17.681 15.3372 17.7562 15.57 17.8818 15.776C18.7173 17.1476 17.1476 18.7182 15.7751 17.8827C15.5692 17.7572 15.3366 17.6822 15.0962 17.6636C14.8558 17.645 14.6144 17.6833 14.3917 17.7756C14.1689 17.8678 13.971 18.0113 13.8142 18.1944C13.6573 18.3775 13.5459 18.5951 13.4889 18.8293C13.1102 20.3902 10.8898 20.3902 10.5111 18.8293C10.4543 18.5948 10.3429 18.3771 10.186 18.1938C10.0292 18.0105 9.83121 17.8668 9.60831 17.7744C9.38541 17.6821 9.14385 17.6437 8.9033 17.6623C8.66275 17.681 8.43 17.7562 8.224 17.8818C6.85244 18.7173 5.28178 17.1476 6.11733 15.7751C6.24276 15.5692 6.31782 15.3366 6.33643 15.0962C6.35504 14.8558 6.31666 14.6144 6.22442 14.3917C6.13218 14.1689 5.98868 13.971 5.80558 13.8142C5.62248 13.6573 5.40495 13.5459 5.17067 13.4889C3.60978 13.1102 3.60978 10.8898 5.17067 10.5111C5.40515 10.4543 5.62291 10.3429 5.80622 10.186C5.98953 10.0292 6.1332 9.83121 6.22555 9.60831C6.3179 9.38541 6.35631 9.14385 6.33766 8.9033C6.31901 8.66275 6.24382 8.43 6.11822 8.224C5.28267 6.85244 6.85244 5.28178 8.22489 6.11733C9.11022 6.65778 10.2658 6.17956 10.5111 5.17067Z" stroke="white" stroke-width="1.5" stroke-linecap="round" stroke-linejoin="round"/>
<path d="M15 12C15 12.7956 14.6839 13.5587 14.1213 14.1213C13.5587 14.6839 12.7956 15 12 15C11.2044 15 10.4413 14.6839 9.87868 14.1213C9.31607 13.5587 9 12.7956 9 12C9 11.2044 9.31607 10.4413 9.87868 9.87868C10.4413 9.31607 11.2044 9 12 9C12.7956 9 13.5587 9.31607 14.1213 9.87868C14.6839 10.4413 15 11.2044 15 12Z" stroke="white" stroke-width="1.5" stroke-linecap="round" stroke-linejoin="round"/>
</svg>
