<svg width="24" height="24" viewBox="0 0 24 24" fill="none" xmlns="http://www.w3.org/2000/svg">
<path d="M18.23 11.58H6.29C5.68174 11.5774 5.09929 11.3339 4.67012 10.9028C4.24094 10.4718 3.99999 9.88827 4 9.28V6.28C4.00525 5.6752 4.24852 5.09681 4.67713 4.67008C5.10574 4.24334 5.68519 4.00261 6.29 4H18.23C18.8373 4 19.4198 4.24127 19.8493 4.67073C20.2787 5.10018 20.52 5.68265 20.52 6.29V9.29C20.52 9.89735 20.2787 10.4798 19.8493 10.9093C19.4198 11.3387 18.8373 11.58 18.23 11.58ZM6.29 5.58C6.107 5.58 5.9315 5.6527 5.8021 5.7821C5.6727 5.9115 5.6 6.087 5.6 6.27V9.27C5.6 9.453 5.6727 9.6285 5.8021 9.7579C5.9315 9.8873 6.107 9.96 6.29 9.96H18.23C18.413 9.96 18.5885 9.8873 18.7179 9.7579C18.8473 9.6285 18.92 9.453 18.92 9.27V6.27C18.92 6.087 18.8473 5.9115 18.7179 5.7821C18.5885 5.6527 18.413 5.58 18.23 5.58H6.29Z" fill="white"/>
<path d="M18.23 20.5199H6.29C5.68347 20.5173 5.10252 20.2752 4.67363 19.8463C4.24474 19.4174 4.00263 18.8365 4 18.2299V15.2299C3.99999 14.6217 4.24094 14.0382 4.67012 13.6071C5.09929 13.1761 5.68174 12.9326 6.29 12.9299H18.23C18.5316 12.9299 18.8302 12.9895 19.1087 13.1052C19.3872 13.2209 19.64 13.3905 19.8528 13.6042C20.0656 13.8179 20.2341 14.0715 20.3486 14.3505C20.4631 14.6295 20.5213 14.9284 20.52 15.2299V18.2299C20.52 18.8373 20.2787 19.4197 19.8493 19.8492C19.4198 20.2787 18.8373 20.5199 18.23 20.5199ZM6.29 14.5799C6.19854 14.5799 6.10799 14.5981 6.02362 14.6334C5.93924 14.6687 5.86273 14.7204 5.79853 14.7856C5.73432 14.8507 5.68371 14.9279 5.64963 15.0128C5.61554 15.0977 5.59867 15.1885 5.6 15.2799V18.2799C5.6 18.4629 5.6727 18.6384 5.8021 18.7678C5.9315 18.8972 6.107 18.9699 6.29 18.9699H18.23C18.413 18.9699 18.5885 18.8972 18.7179 18.7678C18.8473 18.6384 18.92 18.4629 18.92 18.2799V15.2799C18.9213 15.1885 18.9045 15.0977 18.8704 15.0128C18.8363 14.9279 18.7857 14.8507 18.7215 14.7856C18.6573 14.7204 18.5808 14.6687 18.4964 14.6334C18.412 14.5981 18.3215 14.5799 18.23 14.5799H6.29Z" fill="white"/>
<path d="M7.78999 8.57998C7.57782 8.57998 7.37433 8.49569 7.2243 8.34567C7.07428 8.19564 6.98999 7.99215 6.98999 7.77998C6.98999 7.56781 7.07428 7.36432 7.2243 7.21429C7.37433 7.06427 7.57782 6.97998 7.78999 6.97998C8.00216 6.97998 8.20565 7.06427 8.35568 7.21429C8.5057 7.36432 8.58999 7.56781 8.58999 7.77998C8.58999 7.99215 8.5057 8.19564 8.35568 8.34567C8.20565 8.49569 8.00216 8.57998 7.78999 8.57998Z" fill="white"/>
<path d="M7.78999 17.58C7.57782 17.58 7.37433 17.4957 7.2243 17.3457C7.07428 17.1956 6.98999 16.9922 6.98999 16.78C6.98999 16.5678 7.07428 16.3643 7.2243 16.2143C7.37433 16.0643 7.57782 15.98 7.78999 15.98C8.00216 15.98 8.20565 16.0643 8.35568 16.2143C8.5057 16.3643 8.58999 16.5678 8.58999 16.78C8.58999 16.9922 8.5057 17.1956 8.35568 17.3457C8.20565 17.4957 8.00216 17.58 7.78999 17.58Z" fill="white"/>
</svg>
